<svg id="Layer_1" data-name="Layer 1" xmlns="http://www.w3.org/2000/svg" viewBox="0 0 391.67 330"><path d="M192.36,38.5c.61,1.18,1.11,1.41,2.24.85.77-.38,1.52-.82,2.8-1.53,1.56,3.37,3,6.55,4.5,9.69,1.26,2.65,2.53,5.3,3.91,7.88a3.47,3.47,0,0,0,1.72,1.43,23.21,23.21,0,0,0,3.7,1,2,2,0,0,1,1.48,1.2c1.1,2.26,2.26,4.51,3.39,6.76.32.63.78,1.1,1.52.79s.8-1.07.43-1.8c-1.17-2.3-2.37-4.62-3.49-7a2.1,2.1,0,0,1-.09-1.44c.45-1.32,1.09-2.58,1.48-3.91a3.1,3.1,0,0,0-.12-2C213.27,45.22,210.6,40,208,34.84c-.31-.6-.69-1.2-1-1.84,1-.45,1.8-.8,2.59-1.22,1.1-.57,1.18-1.12.45-2.53-.53-1-1-1.19-2.09-.67s-2.21,1.12-3.31,1.67c-3.88,1.91-7.76,3.81-11.62,5.75C191.76,36.58,191.67,37.13,192.36,38.5Zm18.49,6.62c1,2.15,2.06,4.18,3,6.24a1.07,1.07,0,0,1,0,.74c-.37,1-.81,2-1.18,3-.21.61-.57.72-1.13.56-1.08-.32-2.19-.57-3.27-.9a1.18,1.18,0,0,1-.63-.56c-1-1.91-2-3.84-3.13-6Z"/><path d="M192.1,28.65a14.72,14.72,0,0,0,1.65-1.12l2.15,4.9,7.17-3.54-2.53-4.68c.76-.3,1.27-.45,1.74-.69a1.2,1.2,0,0,0,.59-1.78c-.41-.82-1-1.12-1.83-.69-3.39,1.72-6.78,3.42-10.15,5.15a1.21,1.21,0,0,0-.54,1.81A1.18,1.18,0,0,0,192.1,28.65Z"/><path d="M242.5,74.21c9.38-4.12,9.38-4.12,12.82-12.92q5.44-14,10.9-27.95c.37-1,1.18-2.08.95-2.9-.44-1.56-1.15-3.58-2.38-4.22a1,1,0,0,0-.5-.11,2.37,2.37,0,0,0-.44.05,1.2,1.2,0,0,0-.24.06l-.24.07-.41.16-.49.23-.25.13c-.37.19-.74.41-1.09.62l-.34.2-.21.13c-.64.4-.84,1.56-1.17,2.4q-8.09,20.69-16.16,41.37C242.94,72.32,242.79,73.17,242.5,74.21Z"/><path d="M144.15,274.87c7.31-4.68,8.13-8.77,3.91-15.75-12.31-20.38-29.07-36.54-47.45-51.19-7.9-6.29-16.25-12-26.32-14.62,7.59,8,14.87,15.69,22.07,23.48,7.62,8.24,15.58,16.22,22.57,25,6.39,7.92,13.5,15.69,17.41,27.35-25.45-7.7-47.74-16.92-67-32.41-23.16-18.64-36.8-42.34-35.9-72.64.68-22,1.83-22.52,22.44-16.2,11.58,3.55,23.21,7.37,34.12,12.57,29.89,14.25,52.94,35.19,61.91,68.46,2.62,9.67,4,19.65,6,29.48,11-20.89,30.7-39.38,30.3-62.8,0-1.9-.12-3.8-.28-5.7a99.31,99.31,0,0,0-4.29-22.1,108.11,108.11,0,0,0-5.69-14.37c-.5-1.07-1-2.13-1.59-3.19l-1-1.85-.59-1c-.32-.6-.66-1.19-1-1.78l-.58-1c-.77-1.31-1.58-2.61-2.41-3.89-.39-.6-.79-1.2-1.19-1.79q-3-4.41-6.37-8.59l-.67-.81c-.82-1-1.66-2-2.52-3q.63,2.46,1.31,4.89c.12.43.24.87.37,1.3q.3,1.1.63,2.19c.13.46.26.91.4,1.37.29,1,.59,2,.88,3l.39,1.24.72,2.33.42,1.33c.28.92.58,1.85.87,2.77,5,15.69,10.14,31.38,11.63,48.26A103.4,103.4,0,0,1,134.9,159h0a95.15,95.15,0,0,1-6.79-12c-10.19-21.54-11.58-46.05-2-68.26.43-1,.85-1.92,1.27-2.76,1.23-2.43,2.5-4.17,4.16-4.83,1.92-.79,4.34-.12,7.78,2.57.2.14.39.3.59.46l.87.7c.66.52,1.33,1,2,1.54l1.51,1.12c.16.12.32.24.49.35,6.67,4.84,13.8,9.08,20.49,13.89q3.07,2.22,5.88,4.6c.25.21.5.42.74.64.58.49,1.14,1,1.69,1.51s1,.91,1.5,1.39q1.89,1.8,3.62,3.7l.7.77c.47.52.92,1.05,1.37,1.58a66.78,66.78,0,0,1,6.45,9.14c.87,1.46,1.66,2.95,2.4,4.47.32.66.63,1.33.92,2l.15.34c.29.64.55,1.29.81,2s.4,1,.58,1.54c.32.86.62,1.72.89,2.6l.2.65c.48,1.57.91,3.17,1.27,4.81.32,1.41.59,2.84.82,4.3.1.59.19,1.19.26,1.8,0,.17,0,.34.06.51,0,.37.1.75.14,1.13s.09.83.13,1.25c0,.1,0,.21,0,.32,0,.53.09,1.06.13,1.6.05.81.12,1.63.19,2.44,0,.31.05.61.09.91q.1,1.25.24,2.49l.06.51.09.74.15,1.29c.07.6.15,1.21.24,1.81.17,1.34.36,2.67.56,4,.3,2.1.63,4.2,1,6.3.12.81.25,1.61.37,2.41q.42,2.64.79,5.29c.1.62.18,1.24.27,1.86l1.11.15,1.84.26,10.95-21.53,6.76-13.31.93-1.83,3.81-7.5,1.52-3c.22-.43.44-.86.65-1.29q.66-1.26,1.29-2.52c.44-.86.87-1.72,1.3-2.58l1.24-2.45,1-1.93,1.57-3.11,0-.1c.2-.41.4-.81.61-1.21.36-.78.72-1.56,1.07-2.35l1.71-3.76c.11-.16.22-.32.32-.49l.22-.35a7.6,7.6,0,0,0,.37-.76l.21-.5c0-.12.1-.23.15-.36,1.28-3.09,2.53-6.21,3.75-9.33l.55-1.41c1.61-4.1,3.18-8.22,4.77-12.33a29.24,29.24,0,0,0,.85-3.18L242,81.26c-.71.39-1.42.77-2.11,1.17-.39-.07-.79-.13-1.18-.18l-.36-.06c.09-2.09-.36-4.4.34-6.25.92-2.41,1.83-4.83,2.77-7.25l.42-1.08c5-13,10.09-25.94,15.16-38.89,1-2.51,1.47-5-1.54-6.27a4.36,4.36,0,0,0-1.65-.36,3.1,3.1,0,0,0-.69.08,2.72,2.72,0,0,0-.62.23,3.11,3.11,0,0,0-.79.57,2.83,2.83,0,0,0-.24.25,6,6,0,0,0-.64.88c-.12.21-.24.44-.36.67s-.22.48-.32.73l-.15.38c-.33.85-.67,1.69-1,2.54-.44,1.13-.89,2.27-1.34,3.4,0,.09-.06.18-.1.27q-9.69,24.85-19.39,49.69l-.05.12c-.31.75-.59,1.51-.89,2.27l-.19.48q-3,7.77-6.1,15.53l-1.73,0h-.43l.3-.75.88-2.24c1.44-3.68,2.9-7.35,4.33-11-2.32,1.3-4.66,2.59-7.05,3.79-.25.13-1.89-1.31-2-2.08-.22-3.34-.08-6.69-.08-10,0-2.05,1.18-2.68,2.8-1.83,2.83,1.49,5.62,3.11,8.41,4.73q9.65-24.68,19.29-49.41v0l0,0,0-.11,0-.05,0-.05c.38-.95.77-1.92,1.13-2.86A35.91,35.91,0,0,0,233.24,8.06C222.89.59,211.31-1.23,198.78.74c-9.91,1.55-18.31,5.77-24.61,13.37-9.37,11.32-10.63,24.28-5.73,37.82,2.76,7.67,4.44,15.37,3.57,23.52-.34,3.21-.77,6.43-1.13,9.33l-.42-.28c-3.31-2.17-7.15-4.64-11.63-7.42-1.68-1.07-3.36-2.16-5.09-3.11a24.58,24.58,0,0,1-2.37-1.5c-.53-.38-1.06-.79-1.59-1.21-.68-.54-1.35-1.11-2-1.69l-1.42-1.28-1.6-1.5c-1.31-1.23-2.6-2.45-3.89-3.59-1-.87-2-1.69-3-2.41-3.56-2.59-7.1-3.91-10.74-2-8.82,4.67-10.74,20-12.51,31.52-1.35,8.6-5.17,10.45-13,10.34-29.51-.33-59,.11-88.49-.28C5.22,100.28,1.88,102,.72,110.8c-1.58,11.89-.28,23.41,1.1,34.92,6.33,52.45,27.8,96.84,71.77,128.08C108.14,298.34,108.28,297.72,144.15,274.87ZM198.5,88c-.05.76-1.7,2.18-2,2-4-2-7.86-4.24-11.76-6.41,0-.47,0-.94,0-1.41,3.91-2.13,7.78-4.32,11.76-6.3.29-.13,1.93,1.29,2,2A74.75,74.75,0,0,1,198.5,88Zm32.32,5.72q.24-.14.48-.24a3.33,3.33,0,0,1,1.36-.38,1.55,1.55,0,0,1,.37,0c1.11.26,1.84,2.15,3.39,4.16l-.75.27-.72.28-.67.28a8.28,8.28,0,0,1-2.59.85,1,1,0,0,1-.49-.11c-1.17-.67-1.57-2.69-2.3-4.14C229.53,94.44,230.18,94,230.82,93.7Zm-42.42-76c12.23.05,24.46,0,36.69,0,2.71,0,3.85,1.13,3.81,3.9-.1,7.08,0,14.16,0,21.22s-.08,13.92.09,20.86c.07,3.23-1.05,4.57-4.33,4.55q-17.79-.1-35.6,0c-3.27,0-4.43-1.27-4.4-4.5.07-14,0-28-.07-42.08C184.55,19.08,185.59,17.74,188.4,17.74Z"/><path d="M274.3,307.91c-6.89-7.37-13.52-8.8-23.56-5.75-24.94,7.58-47-2.41-71.42-14.25,6.59-2.15,10.33-3.71,14.22-4.58,14.14-3.14,28.43-3.36,45.32-.27-40.64-22.35-117.16,4.07-141,46.94H298.17C288.64,321.27,281,315.05,274.3,307.91Z"/><path d="M269.45,100.55a11.29,11.29,0,0,0-10.29,6.4c-15.94,32.55-31.69,65.19-49,100.86,18.86-10.15,35.09-18,52.47-23.15s35.21-7.85,53.17-10.25C287.32,166.35,260,176.07,230,183c21.59-31.84,49.5-41.91,83.15-38.91,19.63,1.75,38.68,6.71,57.69,11.62,5.82,1.5,9.31,1.65,10.87-5.88,3.3-16,8.38-31.56,10-49.31C350.68,100.48,310.06,100.43,269.45,100.55Z"/><path d="M296.67,216.81a202.29,202.29,0,0,1-78-.45c-8.7-1.77-13.88-.47-17.5,8.36-4.93,12-11.18,23.47-18.14,37.8,26.32-12.68,34.51-14.62,58.77-13,16.77,1.1,32.94,6.88,49.93,6.7,7.53-.08,5.76,4.3,3.15,8.22-4.95,7.48-10.16,14.79-17.11,24.84,45.72-25,94.44-88,96.28-123.49C353.57,192.08,329.16,210.75,296.67,216.81Z"/></svg>