<svg id="Layer_1" data-name="Layer 1" xmlns="http://www.w3.org/2000/svg" viewBox="0 0 168 143.74"><path d="M124.86,16c-.59-6.75-6.5-12.41-13.65-13.07-10.72-1-18,7.09-16.42,17.73.43,2.77,2.51,5.66-.08,8.64q-6.52,7.52-12.62,15.4c-1.57,2-2.51,2-4.43.37A67.89,67.89,0,0,0,66.7,37c-3.79-2.08-7.17-8.06-10.79-6.16S51.56,39,50.84,43.64c-.55,3.49-2.1,4.24-5.27,4.2-12-.14-23.93,0-35.9-.12-3.21,0-4.57.68-5,4.23-.63,4.83-.11,9.5.45,14.17,2.56,21.27,11.28,39.28,29.11,51.95,14,10,14.07,9.7,28.62.43,3-1.89,3.29-3.56,1.58-6.39-5-8.26-11.79-14.82-19.24-20.76-3.21-2.55-6.59-4.87-10.68-5.93,3.08,3.26,6,6.36,9,9.52,3.09,3.34,6.31,6.58,9.15,10.13,2.59,3.21,5.47,6.36,7.06,11.09C49.32,113,40.28,109.3,32.48,103c-9.4-7.56-14.93-17.17-14.56-29.46.27-8.9.74-9.13,9.1-6.57a100.09,100.09,0,0,1,13.84,5.1C53,77.86,62.33,86.36,66,99.84c1.06,3.93,1.62,8,2.42,12,4.45-8.48,12.45-16,12.29-25.48-.17-10.07-4.35-20-11.43-28,2.36,9.23,6.28,18,7.15,27.83C57.06,77.19,48,56.31,55.48,38.92c1.29-3,2.39-4.47,5.6-1.85s6.89,4.7,10.28,7.14c7.29,5.27,11.86,12.09,12.46,21.34.28,4.08,1.08,8.13,1.63,12.19l1.2.17c6.59-13,13.26-25.92,19.73-39,1.63-3.28,3.56-5.33,7.41-6.14C121.61,31.15,125.61,24.67,124.86,16Zm-24.1-.17a9,9,0,0,1,8.61-9c4.8-.48,8.68,2.69,10,8.17C110.89,8.6,107.37,8.76,100.76,15.86Z"/><path d="M163.2,47.77c-.65,7.2-2.71,13.52-4,20-.63,3-2,3-4.4,2.38-7.72-2-15.44-4-23.4-4.71-13.65-1.22-25,2.87-33.73,15.78,12.19-2.79,23.26-6.73,34.82-3.46a140.89,140.89,0,0,0-21.57,4.15c-7.05,2.1-13.63,5.27-21.28,9.39,7-14.47,13.4-27.71,19.87-40.91a4.57,4.57,0,0,1,4.17-2.59C130.1,47.75,146.58,47.77,163.2,47.77Z"/><path d="M78.58,113.49c2.82-5.81,5.36-10.46,7.36-15.33,1.47-3.58,3.57-4.11,7.09-3.39a82,82,0,0,0,31.64.18c13.18-2.45,23.08-10,31.38-20.7-.74,14.38-20.5,40-39.05,50.09,2.82-4.08,4.94-7,7-10.08,1-1.59,1.77-3.36-1.28-3.33-6.9.07-13.45-2.27-20.25-2.72C92.58,107.56,89.25,108.35,78.58,113.49Z"/><path d="M125.28,140.86H44c9.66-17.39,40.7-28.1,57.18-19a45,45,0,0,0-18.38.11c-1.58.35-3.09,1-5.76,1.86,9.9,4.8,18.85,8.85,29,5.78,4.07-1.24,6.76-.66,9.56,2.33S121.41,137.32,125.28,140.86Z"/></svg>